<?xml version="1.0" encoding="UTF-8" standalone="no"?>
<!DOCTYPE svg PUBLIC "-//W3C//DTD SVG 1.1//EN"
 "http://www.w3.org/Graphics/SVG/1.1/DTD/svg11.dtd">
<!-- Generated by graphviz version 3.0.0 (20220226.1711)
 -->
<!-- Title: G Pages: 1 -->
<svg width="242pt" height="260pt"
 viewBox="0.00 0.00 242.00 260.00" xmlns="http://www.w3.org/2000/svg" xmlns:xlink="http://www.w3.org/1999/xlink">
<g id="graph0" class="graph" transform="scale(1 1) rotate(0) translate(4 256)">
<title>G</title>
<polygon fill="white" stroke="transparent" points="-4,4 -4,-256 238,-256 238,4 -4,4"/>
<!-- + -->
<g id="node1" class="node">
<title>+</title>
<ellipse fill="none" stroke="black" cx="63" cy="-234" rx="27" ry="18"/>
<text text-anchor="middle" x="63" y="-230.3" font-family="Times New Roman,serif" font-size="14.00">+</text>
</g>
<!-- 6 -->
<g id="node2" class="node">
<title>6</title>
<ellipse fill="none" stroke="black" cx="27" cy="-162" rx="27" ry="18"/>
<text text-anchor="middle" x="27" y="-158.3" font-family="Times New Roman,serif" font-size="14.00">6</text>
</g>
<!-- +&#45;&gt;6 -->
<g id="edge1" class="edge">
<title>+&#45;&gt;6</title>
<path fill="none" stroke="black" d="M54.65,-216.76C50.29,-208.28 44.85,-197.71 39.96,-188.2"/>
<polygon fill="black" stroke="black" points="42.99,-186.44 35.3,-179.15 36.77,-189.64 42.99,-186.44"/>
</g>
<!-- * -->
<g id="node3" class="node">
<title>*</title>
<ellipse fill="none" stroke="black" cx="99" cy="-162" rx="27" ry="18"/>
<text text-anchor="middle" x="99" y="-158.3" font-family="Times New Roman,serif" font-size="14.00">*</text>
</g>
<!-- +&#45;&gt;* -->
<g id="edge2" class="edge">
<title>+&#45;&gt;*</title>
<path fill="none" stroke="black" d="M71.35,-216.76C75.71,-208.28 81.15,-197.71 86.04,-188.2"/>
<polygon fill="black" stroke="black" points="89.23,-189.64 90.7,-179.15 83.01,-186.44 89.23,-189.64"/>
</g>
<!-- &#45; -->
<g id="node4" class="node">
<title>&#45;</title>
<ellipse fill="none" stroke="black" cx="63" cy="-90" rx="27" ry="18"/>
<text text-anchor="middle" x="63" y="-86.3" font-family="Times New Roman,serif" font-size="14.00">&#45;</text>
</g>
<!-- *&#45;&gt;&#45; -->
<g id="edge3" class="edge">
<title>*&#45;&gt;&#45;</title>
<path fill="none" stroke="black" d="M90.65,-144.76C86.29,-136.28 80.85,-125.71 75.96,-116.2"/>
<polygon fill="black" stroke="black" points="78.99,-114.44 71.3,-107.15 72.77,-117.64 78.99,-114.44"/>
</g>
<!-- / -->
<g id="node5" class="node">
<title>/</title>
<ellipse fill="none" stroke="black" cx="135" cy="-90" rx="27" ry="18"/>
<text text-anchor="middle" x="135" y="-86.3" font-family="Times New Roman,serif" font-size="14.00">/</text>
</g>
<!-- *&#45;&gt;/ -->
<g id="edge4" class="edge">
<title>*&#45;&gt;/</title>
<path fill="none" stroke="black" d="M107.35,-144.76C111.71,-136.28 117.15,-125.71 122.04,-116.2"/>
<polygon fill="black" stroke="black" points="125.23,-117.64 126.7,-107.15 119.01,-114.44 125.23,-117.64"/>
</g>
<!-- 1 -->
<g id="node6" class="node">
<title>1</title>
<ellipse fill="none" stroke="black" cx="63" cy="-18" rx="27" ry="18"/>
<text text-anchor="middle" x="63" y="-14.3" font-family="Times New Roman,serif" font-size="14.00">1</text>
</g>
<!-- &#45;&#45;&gt;1 -->
<g id="edge5" class="edge">
<title>&#45;&#45;&gt;1</title>
<path fill="none" stroke="black" d="M63,-71.7C63,-63.98 63,-54.71 63,-46.11"/>
<polygon fill="black" stroke="black" points="66.5,-46.1 63,-36.1 59.5,-46.1 66.5,-46.1"/>
</g>
<!-- 9 -->
<g id="node7" class="node">
<title>9</title>
<ellipse fill="none" stroke="black" cx="135" cy="-18" rx="27" ry="18"/>
<text text-anchor="middle" x="135" y="-14.3" font-family="Times New Roman,serif" font-size="14.00">9</text>
</g>
<!-- /&#45;&gt;9 -->
<g id="edge6" class="edge">
<title>/&#45;&gt;9</title>
<path fill="none" stroke="black" d="M135,-71.7C135,-63.98 135,-54.71 135,-46.11"/>
<polygon fill="black" stroke="black" points="138.5,-46.1 135,-36.1 131.5,-46.1 138.5,-46.1"/>
</g>
<!-- 3 -->
<g id="node8" class="node">
<title>3</title>
<ellipse fill="none" stroke="black" cx="207" cy="-18" rx="27" ry="18"/>
<text text-anchor="middle" x="207" y="-14.3" font-family="Times New Roman,serif" font-size="14.00">3</text>
</g>
<!-- /&#45;&gt;3 -->
<g id="edge7" class="edge">
<title>/&#45;&gt;3</title>
<path fill="none" stroke="black" d="M149.57,-74.83C159.75,-64.94 173.52,-51.55 185.03,-40.36"/>
<polygon fill="black" stroke="black" points="187.47,-42.87 192.2,-33.38 182.59,-37.85 187.47,-42.87"/>
</g>
</g>
</svg>
